<svg width="59" height="59" viewBox="0 0 59 59" fill="none" xmlns="http://www.w3.org/2000/svg">
<g clip-path="url(#clip0_30_139)">
<path d="M29.5 58.41C45.4665 58.41 58.41 45.4665 58.41 29.5C58.41 13.5334 45.4665 0.59 29.5 0.59C13.5334 0.59 0.589996 13.5334 0.589996 29.5C0.589996 45.4665 13.5334 58.41 29.5 58.41Z" fill="#374231"/>
<g filter="url(#filter0_d_30_139)">
<path d="M45.076 38.763C45.076 42.716 40.71 48.439 36.226 48.439C33.276 48.38 31.093 45.548 30.326 44.427C29.972 44.958 26.904 48.97 23.246 48.97C19.588 48.97 15.576 45.312 14.396 39.884C13.8774 37.5792 13.7973 35.1974 14.16 32.863C17.169 36.403 20.827 38.822 21.889 38.055C21.889 38.055 22.538 37.878 22.125 36.757C21.181 34.161 16.992 32.627 14.396 31.565C14.8987 29.093 15.7114 26.6944 16.815 24.426C19.057 27.081 21.653 28.851 22.597 28.32C22.597 28.32 23.187 28.202 22.892 27.258C22.361 25.37 19.706 24.013 17.523 23.01C18.3877 21.2713 19.3735 19.5956 20.473 17.995C21.948 20.119 23.364 21.476 23.895 21.063C24.426 20.65 24.249 21.004 24.013 20.06C23.777 19.116 22.597 17.523 21.476 16.579C23.3149 14.0022 25.2841 11.521 27.376 9.145C29.7386 11.1817 31.9473 13.3904 33.984 15.753C32.922 16.992 31.919 18.467 31.86 20.06C31.801 21.653 32.214 21.004 32.214 21.004C32.214 21.004 34.043 19.529 35.046 16.992C36.285 18.467 37.524 20.06 38.704 21.771C36.816 23.187 34.515 24.957 34.397 26.845C34.279 28.733 34.928 27.848 34.928 27.848C37.465 25.37 37.996 26.137 39.648 23.246C41.0038 25.3194 42.1689 27.5113 43.129 29.795C40.769 31.329 37.465 33.512 37.111 36.049C36.934 37.288 37.583 37.288 37.583 37.288C38.704 37.819 41.536 35.105 43.719 31.388C44.5726 33.7553 45.031 36.2469 45.076 38.763Z" fill="white"/>
<path d="M45.076 38.763C45.076 42.716 40.71 48.439 36.226 48.439C33.276 48.38 31.093 45.548 30.326 44.427C29.972 44.958 26.904 48.97 23.246 48.97C19.588 48.97 15.576 45.312 14.396 39.884C13.8774 37.5792 13.7973 35.1974 14.16 32.863C17.169 36.403 20.827 38.822 21.889 38.055C21.889 38.055 22.538 37.878 22.125 36.757C21.181 34.161 16.992 32.627 14.396 31.565C14.8987 29.093 15.7114 26.6944 16.815 24.426C19.057 27.081 21.653 28.851 22.597 28.32C22.597 28.32 23.187 28.202 22.892 27.258C22.361 25.37 19.706 24.013 17.523 23.01C18.3877 21.2713 19.3735 19.5956 20.473 17.995C21.948 20.119 23.364 21.476 23.895 21.063C24.426 20.65 24.249 21.004 24.013 20.06C23.777 19.116 22.597 17.523 21.476 16.579C23.3149 14.0022 25.2841 11.521 27.376 9.145C29.7386 11.1817 31.9473 13.3904 33.984 15.753C32.922 16.992 31.919 18.467 31.86 20.06C31.801 21.653 32.214 21.004 32.214 21.004C32.214 21.004 34.043 19.529 35.046 16.992C36.285 18.467 37.524 20.06 38.704 21.771C36.816 23.187 34.515 24.957 34.397 26.845C34.279 28.733 34.928 27.848 34.928 27.848C37.465 25.37 37.996 26.137 39.648 23.246C41.0038 25.3194 42.1689 27.5113 43.129 29.795C40.769 31.329 37.465 33.512 37.111 36.049C36.934 37.288 37.583 37.288 37.583 37.288C38.704 37.819 41.536 35.105 43.719 31.388C44.5726 33.7553 45.031 36.2469 45.076 38.763Z" stroke="#374231" stroke-width="2" stroke-linecap="round" stroke-linejoin="round"/>
</g>
<path d="M30.326 44.427C31.329 34.22 28.91 15.93 27.376 9.145L30.326 44.427Z" fill="white"/>
<path d="M30.326 44.427C31.329 34.22 28.91 15.93 27.376 9.145" stroke="#374231" stroke-width="2" stroke-miterlimit="10"/>
</g>
<defs>
<filter id="filter0_d_30_139" x="8.93689" y="8.14499" width="41.1391" height="49.825" filterUnits="userSpaceOnUse" color-interpolation-filters="sRGB">
<feFlood flood-opacity="0" result="BackgroundImageFix"/>
<feColorMatrix in="SourceAlpha" type="matrix" values="0 0 0 0 0 0 0 0 0 0 0 0 0 0 0 0 0 0 127 0" result="hardAlpha"/>
<feOffset dy="4"/>
<feGaussianBlur stdDeviation="2"/>
<feComposite in2="hardAlpha" operator="out"/>
<feColorMatrix type="matrix" values="0 0 0 0 0 0 0 0 0 0 0 0 0 0 0 0 0 0 0.25 0"/>
<feBlend mode="normal" in2="BackgroundImageFix" result="effect1_dropShadow_30_139"/>
<feBlend mode="normal" in="SourceGraphic" in2="effect1_dropShadow_30_139" result="shape"/>
</filter>
<clipPath id="clip0_30_139">
<rect width="59" height="59" fill="white"/>
</clipPath>
</defs>
</svg>
